<?xml version="1.0" encoding="UTF-8" standalone="no"?>
<!-- Created with Inkscape (http://www.inkscape.org/) -->

<svg
   width="113.7091mm"
   height="25.722473mm"
   viewBox="0 0 113.7091 25.722473"
   version="1.1"
   id="svg1"
   xml:space="preserve"
   xmlns="http://www.w3.org/2000/svg"><defs
     id="defs1" /><g
     id="g1"
     transform="matrix(0.26458332,0,0,0.26458334,2.9434945,-67.110552)"><g
       id="group-R5"
       transform="translate(-11.125072,253.65162)"><path
         id="path2"
         d="m 868.254,426.555 v 291.922 h 34.437 V 426.555 h -34.437"
         style="fill:#231f20;fill-opacity:1;fill-rule:nonzero;stroke:none"
         transform="matrix(0.13333333,0,0,-0.13333333,0,97.213333)" /><path
         id="path3"
         d="m 1106.46,623.77 c 13.12,-12.852 19.68,-30.887 19.68,-54.122 V 426.555 h -32.8 v 139.812 c 0,31.438 -16.13,47.149 -48.38,47.149 -15.31,0 -28.84,-5.743 -40.59,-17.215 -11.757,-11.485 -17.632,-28.156 -17.632,-50.02 V 426.555 h -32.8 v 211.562 h 31.16 v -31.574 c 16.132,24.328 38.262,36.496 66.422,36.496 23.51,0 41.82,-6.426 54.94,-19.269"
         style="fill:#231f20;fill-opacity:1;fill-rule:nonzero;stroke:none"
         transform="matrix(0.13333333,0,0,-0.13333333,0,97.213333)" /><path
         id="path4"
         d="m 1160.16,493.801 h 33.21 c 1.92,-15.86 7.18,-27.129 15.79,-33.828 8.61,-6.7 22.21,-10.051 40.79,-10.051 33.9,0 50.85,10.937 50.85,32.805 0,9.57 -3.49,16.804 -10.46,21.726 -6.97,4.922 -19.61,9.16 -37.93,12.715 l -19.68,3.691 c -44,8.196 -66.01,28.977 -66.01,62.317 0,18.32 6.9,32.871 20.71,43.672 13.8,10.789 32.6,16.191 56.37,16.191 56.04,0 84.74,-23.371 86.1,-70.109 h -32.79 c -0.83,15.304 -5.47,26.105 -13.95,32.383 -8.47,6.289 -21.59,9.433 -39.36,9.433 -14.21,0 -25.14,-2.734 -32.8,-8.203 -7.65,-5.457 -11.48,-13.113 -11.48,-22.957 0,-9.289 3.28,-16.262 9.85,-20.91 6.55,-4.649 17.49,-8.613 32.79,-11.883 l 18.87,-3.691 c 25.96,-5.196 44.62,-12.579 55.96,-22.141 11.34,-9.57 17.01,-22.969 17.01,-40.184 0,-19.953 -7.44,-35.468 -22.34,-46.535 -14.9,-11.074 -35.47,-16.609 -61.71,-16.609 -56.58,0 -86.51,24.062 -89.79,72.168"
         style="fill:#231f20;fill-opacity:1;fill-rule:nonzero;stroke:none"
         transform="matrix(0.13333333,0,0,-0.13333333,0,97.213333)" /><path
         id="path5"
         d="M 1455.36,609.414 H 1411.9 V 472.07 c 0,-12.031 8.07,-18.047 24.19,-18.047 h 19.27 v -27.468 c -9.01,-0.821 -16.8,-1.231 -23.37,-1.231 -35.25,0 -52.88,14.629 -52.88,43.875 v 140.215 h -34.85 v 28.703 h 34.85 v 59.863 h 32.79 v -59.863 h 43.46 v -28.703"
         style="fill:#231f20;fill-opacity:1;fill-rule:nonzero;stroke:none"
         transform="matrix(0.13333333,0,0,-0.13333333,0,97.213333)" /><path
         id="path6"
         d="m 1490.21,426.555 v 211.562 h 32.8 V 426.555 Z m -1.23,243.543 v 40.175 h 34.85 v -40.175 h -34.85"
         style="fill:#231f20;fill-opacity:1;fill-rule:nonzero;stroke:none"
         transform="matrix(0.13333333,0,0,-0.13333333,0,97.213333)" /><path
         id="path7"
         d="M 1664.86,609.414 H 1621.4 V 472.07 c 0,-12.031 8.06,-18.047 24.19,-18.047 h 19.27 v -27.468 c -9.02,-0.821 -16.81,-1.231 -23.38,-1.231 -35.25,0 -52.89,14.629 -52.89,43.875 v 140.215 h -34.84 v 28.703 h 34.84 v 59.863 h 32.81 v -59.863 h 43.46 v -28.703"
         style="fill:#231f20;fill-opacity:1;fill-rule:nonzero;stroke:none"
         transform="matrix(0.13333333,0,0,-0.13333333,0,97.213333)" /><path
         id="path8"
         d="m 1839.11,638.117 h 32.8 V 426.555 h -31.16 v 31.57 c -16.13,-24.324 -38.27,-36.492 -66.42,-36.492 -23.51,0 -41.82,6.426 -54.94,19.277 -13.12,12.84 -19.68,30.887 -19.68,54.121 v 143.086 h 32.8 V 498.313 c 0,-31.438 16.12,-47.161 48.38,-47.161 15.3,0 28.84,5.743 40.59,17.227 11.75,11.476 17.63,28.156 17.63,50.019 v 119.719"
         style="fill:#231f20;fill-opacity:1;fill-rule:nonzero;stroke:none"
         transform="matrix(0.13333333,0,0,-0.13333333,0,97.213333)" /><path
         id="path9"
         d="M 2013.77,609.414 H 1970.3 V 472.07 c 0,-12.031 8.07,-18.047 24.19,-18.047 h 19.28 v -27.468 c -9.02,-0.821 -16.82,-1.231 -23.38,-1.231 -35.25,0 -52.89,14.629 -52.89,43.875 v 140.215 h -34.84 v 28.703 h 34.84 v 59.863 h 32.8 v -59.863 h 43.47 v -28.703"
         style="fill:#231f20;fill-opacity:1;fill-rule:nonzero;stroke:none"
         transform="matrix(0.13333333,0,0,-0.13333333,0,97.213333)" /><path
         id="path10"
         d="m 2153.98,461.406 c -25.15,27.61 -37.73,64.641 -37.73,111.114 0,46.464 12.58,83.507 37.73,111.105 25.14,27.605 57.53,41.414 97.16,41.414 31.44,0 58.23,-8.543 80.36,-25.625 22.14,-17.078 36.77,-42.031 43.88,-74.824 h -34.85 c -12.31,45.918 -42.09,68.879 -89.39,68.879 -29.79,0 -53.71,-10.664 -71.74,-31.985 -18.04,-21.589 -27.07,-51.25 -27.07,-88.964 0,-37.723 9.03,-67.247 27.07,-88.567 18.03,-21.59 41.95,-32.39 71.74,-32.39 22.42,0 42.38,6.972 59.87,20.917 17.21,13.391 27.74,33.477 31.57,60.266 h 34.44 c -3.83,-36.348 -17.63,-64.094 -41.41,-83.234 C 2311.55,429.836 2283.4,420 2251.14,420 c -39.63,0 -72.02,13.801 -97.16,41.406"
         style="fill:#231f20;fill-opacity:1;fill-rule:nonzero;stroke:none"
         transform="matrix(0.13333333,0,0,-0.13333333,0,97.213333)" /><path
         id="path11"
         d="m 2523.79,465.508 c 13.11,10.383 19.68,25.285 19.68,44.687 v 25.008 c -6.02,-4.644 -15.31,-7.652 -27.88,-9.019 l -30.76,-3.684 c -17.76,-2.187 -30.4,-6.289 -37.92,-12.305 -7.51,-6.015 -11.27,-14.617 -11.27,-25.828 0,-10.937 3.55,-19.472 10.66,-25.625 7.11,-6.152 17.63,-9.23 31.57,-9.23 17.49,0 32.79,5.332 45.92,15.996 z m 75.03,-12.305 v -26.648 c -5.47,-0.821 -11.49,-1.231 -18.04,-1.231 -22.14,0 -34.03,10.117 -35.67,30.34 -14.76,-22.684 -37.73,-34.031 -68.88,-34.031 -23.23,0 -41.48,5.398 -54.74,16.199 -13.26,10.789 -19.88,26.035 -19.88,45.715 0,38.269 26.11,60.137 78.31,65.605 l 30.33,3.27 c 22.15,2.461 33.22,12.168 33.22,29.113 0,11.758 -3.63,20.235 -10.86,25.418 -7.25,5.195 -19.48,7.793 -36.7,7.793 -18.31,0 -31.51,-3.074 -39.57,-9.226 -8.06,-6.145 -12.64,-17.012 -13.73,-32.59 h -32.8 c 2.73,46.738 31.43,70.109 86.1,70.109 53.03,0 79.54,-20.5 79.54,-61.504 V 463.457 c 0,-6.836 3.83,-10.254 11.47,-10.254 h 11.9"
         style="fill:#231f20;fill-opacity:1;fill-rule:nonzero;stroke:none"
         transform="matrix(0.13333333,0,0,-0.13333333,0,97.213333)" /><path
         id="path12"
         d="m 2711.98,609.414 h -43.46 V 472.07 c 0,-12.031 8.06,-18.047 24.19,-18.047 h 19.27 v -27.468 c -9.02,-0.821 -16.81,-1.231 -23.38,-1.231 -35.25,0 -52.89,14.629 -52.89,43.875 v 140.215 h -34.84 v 28.703 h 34.84 v 59.863 h 32.81 v -59.863 h 43.46 v -28.703"
         style="fill:#231f20;fill-opacity:1;fill-rule:nonzero;stroke:none"
         transform="matrix(0.13333333,0,0,-0.13333333,0,97.213333)" /><path
         id="path13"
         d="m 2854.67,465.508 c 13.11,10.383 19.68,25.285 19.68,44.687 v 25.008 c -6.02,-4.644 -15.31,-7.652 -27.88,-9.019 l -30.76,-3.684 c -17.76,-2.187 -30.4,-6.289 -37.92,-12.305 -7.52,-6.015 -11.28,-14.617 -11.28,-25.828 0,-10.937 3.56,-19.472 10.67,-25.625 7.11,-6.152 17.63,-9.23 31.57,-9.23 17.49,0 32.79,5.332 45.92,15.996 z m 75.03,-12.305 v -26.648 c -5.47,-0.821 -11.49,-1.231 -18.04,-1.231 -22.14,0 -34.03,10.117 -35.67,30.34 -14.76,-22.684 -37.73,-34.031 -68.88,-34.031 -23.23,0 -41.48,5.398 -54.74,16.199 -13.26,10.789 -19.88,26.035 -19.88,45.715 0,38.269 26.1,60.137 78.31,65.605 l 30.33,3.27 c 22.15,2.461 33.22,12.168 33.22,29.113 0,11.758 -3.63,20.235 -10.86,25.418 -7.25,5.195 -19.49,7.793 -36.7,7.793 -18.31,0 -31.51,-3.074 -39.57,-9.226 -8.06,-6.145 -12.64,-17.012 -13.73,-32.59 h -32.81 c 2.74,46.738 31.44,70.109 86.11,70.109 53.03,0 79.54,-20.5 79.54,-61.504 V 463.457 c 0,-6.836 3.83,-10.254 11.47,-10.254 h 11.9"
         style="fill:#231f20;fill-opacity:1;fill-rule:nonzero;stroke:none"
         transform="matrix(0.13333333,0,0,-0.13333333,0,97.213333)" /><path
         id="path14"
         d="m 2956.34,426.555 v 291.922 h 32.8 V 426.555 h -32.8"
         style="fill:#231f20;fill-opacity:1;fill-rule:nonzero;stroke:none"
         transform="matrix(0.13333333,0,0,-0.13333333,0,97.213333)" /><path
         id="path15"
         d="m 3148.22,465.508 c 13.12,10.383 19.68,25.285 19.68,44.687 v 25.008 c -6.01,-4.644 -15.3,-7.652 -27.88,-9.019 l -30.75,-3.684 c -17.77,-2.187 -30.4,-6.289 -37.92,-12.305 -7.52,-6.015 -11.28,-14.617 -11.28,-25.828 0,-10.937 3.55,-19.472 10.66,-25.625 7.11,-6.152 17.63,-9.23 31.58,-9.23 17.49,0 32.79,5.332 45.91,15.996 z m -12.71,204.59 h -29.11 l -50.43,59.043 h 44.28 z m 87.74,-216.895 v -26.648 c -5.47,-0.821 -11.48,-1.231 -18.03,-1.231 -22.14,0 -34.04,10.117 -35.68,30.34 -14.75,-22.684 -37.72,-34.031 -68.88,-34.031 -23.23,0 -41.48,5.398 -54.73,16.199 -13.26,10.789 -19.88,26.035 -19.88,45.715 0,38.269 26.1,60.137 78.31,65.605 l 30.33,3.27 c 22.15,2.461 33.21,12.168 33.21,29.113 0,11.758 -3.62,20.235 -10.86,25.418 -7.24,5.195 -19.48,7.793 -36.7,7.793 -18.31,0 -31.5,-3.074 -39.57,-9.226 -8.05,-6.145 -12.63,-17.012 -13.73,-32.59 h -32.8 c 2.73,46.738 31.43,70.109 86.1,70.109 53.03,0 79.54,-20.5 79.54,-61.504 V 463.457 c 0,-6.836 3.83,-10.254 11.48,-10.254 h 11.89"
         style="fill:#231f20;fill-opacity:1;fill-rule:nonzero;stroke:none"
         transform="matrix(0.13333333,0,0,-0.13333333,0,97.213333)" /><path
         id="path16"
         d="m 958.453,31.1523 c 20.77,0 37.309,7.2461 49.607,21.7305 12.3,14.2188 18.45,34.0313 18.45,59.4532 0,25.144 -6.15,44.969 -18.45,59.449 -12.298,14.485 -28.837,21.731 -49.607,21.731 -20.5,0 -36.969,-7.45 -49.406,-22.344 -12.434,-14.891 -18.656,-35.059 -18.656,-60.477 0,-25.1481 6.152,-44.6872 18.453,-58.6247 12.301,-13.9453 28.836,-20.918 49.609,-20.918 z m 66.827,267.3247 h 32.8 V 6.55469 h -31.16 V 39.3555 C 1009.98,14.2109 985.785,1.63281 954.352,1.63281 c -29.789,0 -53.575,10.11329 -71.34,30.33989 -18.039,20.2343 -27.059,47.0117 -27.059,80.3633 0,33.894 9.02,60.82 27.059,80.769 17.492,19.954 41.277,29.93 71.34,29.93 30.339,0 53.988,-11.754 70.928,-35.262 v 110.704"
         style="fill:#231f20;fill-opacity:1;fill-rule:nonzero;stroke:none"
         transform="matrix(0.13333333,0,0,-0.13333333,0,97.213333)" /><path
         id="path17"
         d="m 1152.38,176.914 c -10.93,-10.801 -17.77,-26.309 -20.5,-46.531 h 124.64 c -1.64,18.582 -7.93,33.68 -18.86,45.301 -10.93,11.613 -25.28,17.421 -43.05,17.421 -17.22,0 -31.29,-5.402 -42.23,-16.191 z m 139.4,-76.055 h -160.72 c 1.64,-22.9567 8.07,-40.2535 19.27,-51.8629 11.21,-11.625 26.52,-17.4336 45.92,-17.4336 29.25,0 47.97,13.125 56.17,39.3672 h 34.03 c -5.74,-21.3203 -16.4,-38.2031 -31.98,-50.6367 -15.58,-12.44144 -35.26,-18.66019 -59.04,-18.66019 -29.24,0 -52.89,9.98049 -70.93,29.92969 -18.31,19.9609 -27.47,46.8867 -27.47,80.7735 0,33.348 9.02,60.137 27.06,80.359 17.77,20.227 41.28,30.34 70.52,30.34 30.34,0 54.12,-10.523 71.34,-31.57 17.22,-21.043 25.83,-47.422 25.83,-79.129 v -11.477"
         style="fill:#231f20;fill-opacity:1;fill-rule:nonzero;stroke:none"
         transform="matrix(0.13333333,0,0,-0.13333333,0,97.213333)" /><path
         id="path18"
         d="M 1408.62,6.55469 V 298.477 h 32.81 V 6.55469 h -32.81"
         style="fill:#231f20;fill-opacity:1;fill-rule:nonzero;stroke:none"
         transform="matrix(0.13333333,0,0,-0.13333333,0,97.213333)" /><path
         id="path19"
         d="m 1600.5,45.5078 c 13.11,10.3828 19.68,25.2852 19.68,44.6875 v 25.0077 c -6.02,-4.644 -15.31,-7.652 -27.88,-9.019 l -30.76,-3.684 c -17.76,-2.187 -30.4,-6.2891 -37.92,-12.3047 -7.52,-6.0156 -11.28,-14.6172 -11.28,-25.8281 0,-10.9375 3.56,-19.4727 10.67,-25.625 7.11,-6.1524 17.63,-9.2305 31.57,-9.2305 17.49,0 32.79,5.3321 45.92,15.9961 z m 75.03,-12.3047 V 6.55469 c -5.47,-0.82031 -11.49,-1.23047 -18.04,-1.23047 -22.14,0 -34.03,10.11718 -35.67,30.33988 -14.76,-22.6836 -37.72,-34.03129 -68.88,-34.03129 -23.23,0 -41.47,5.39844 -54.74,16.19919 -13.25,10.7891 -19.88,26.0352 -19.88,45.7149 0,38.2691 26.1,60.1371 78.31,65.6051 l 30.33,3.27 c 22.15,2.461 33.22,12.168 33.22,29.113 0,11.758 -3.63,20.235 -10.86,25.418 -7.25,5.195 -19.49,7.793 -36.7,7.793 -18.31,0 -31.51,-3.074 -39.57,-9.226 -8.06,-6.145 -12.64,-17.012 -13.73,-32.59 h -32.81 c 2.74,46.738 31.44,70.105 86.11,70.105 53.03,0 79.54,-20.496 79.54,-61.5 V 43.457 c 0,-6.8359 3.83,-10.2539 11.47,-10.2539 h 11.9"
         style="fill:#231f20;fill-opacity:1;fill-rule:nonzero;stroke:none"
         transform="matrix(0.13333333,0,0,-0.13333333,0,97.213333)" /><path
         id="path20"
         d="m 1802.21,25.8281 c -21.32,17.2188 -32.11,42.9141 -32.39,77.0819 h 35.67 c 0.82,-47.8397 29.38,-71.7577 85.69,-71.7577 23.78,0 42.02,4.6485 54.74,13.9454 12.7,9.289 19.06,22.8242 19.06,40.5859 0,13.9453 -5.26,24.8044 -15.78,32.5974 -10.53,7.793 -28.91,14.551 -55.15,20.293 l -25.83,5.742 c -29.52,6.836 -51.66,16.739 -66.42,29.727 -14.76,12.98 -22.14,31.23 -22.14,54.738 0,23.231 9.02,41.746 27.06,55.555 18.04,13.801 42.24,20.703 72.57,20.703 20.51,0 38.34,-2.461 53.5,-7.383 15.18,-4.922 27,-11.816 35.47,-20.703 8.48,-8.887 14.69,-18.515 18.65,-28.906 3.97,-10.391 6.09,-21.863 6.36,-34.442 h -35.26 c -1.64,20.782 -8.4,36.016 -20.29,45.723 -11.89,9.695 -31.37,14.551 -58.43,14.551 -20.5,0 -36.28,-3.969 -47.36,-11.887 -11.06,-7.929 -16.6,-19.004 -16.6,-33.211 0,-14.218 4.79,-25.285 14.35,-33.215 9.3,-7.929 27.33,-14.89 54.12,-20.906 l 25.83,-5.742 c 32.26,-7.109 55.49,-17.285 69.71,-30.547 14.21,-13.254 21.31,-30.82 21.31,-52.6874 0,-26.5117 -9.7,-47.4219 -29.11,-62.7227 C 1952.14,7.64844 1925.35,0 1891.18,0 c -38,0 -67.65,8.60547 -88.97,25.8281"
         style="fill:#231f20;fill-opacity:1;fill-rule:nonzero;stroke:none"
         transform="matrix(0.13333333,0,0,-0.13333333,0,97.213333)" /><path
         id="path21"
         d="m 2147.42,45.5078 c 13.12,10.3828 19.68,25.2852 19.68,44.6875 v 25.0077 c -6.02,-4.644 -15.3,-7.652 -27.88,-9.019 l -30.75,-3.684 c -17.77,-2.187 -30.4,-6.2891 -37.92,-12.3047 -7.52,-6.0156 -11.28,-14.6172 -11.28,-25.8281 0,-10.9375 3.55,-19.4727 10.66,-25.625 7.11,-6.1524 17.63,-9.2305 31.57,-9.2305 17.49,0 32.8,5.3321 45.92,15.9961 z m 75.03,-12.3047 V 6.55469 c -5.47,-0.82031 -11.48,-1.23047 -18.04,-1.23047 -22.13,0 -34.03,10.11718 -35.67,30.33988 -14.76,-22.6836 -37.72,-34.03129 -68.88,-34.03129 -23.23,0 -41.48,5.39844 -54.73,16.19919 -13.26,10.7891 -19.89,26.0352 -19.89,45.7149 0,38.2691 26.11,60.1371 78.32,65.6051 l 30.33,3.27 c 22.15,2.461 33.21,12.168 33.21,29.113 0,11.758 -3.62,20.235 -10.86,25.418 -7.25,5.195 -19.48,7.793 -36.7,7.793 -18.31,0 -31.5,-3.074 -39.57,-9.226 -8.06,-6.145 -12.64,-17.012 -13.73,-32.59 h -32.8 c 2.73,46.738 31.43,70.105 86.1,70.105 53.03,0 79.54,-20.496 79.54,-61.5 V 43.457 c 0,-6.8359 3.83,-10.2539 11.48,-10.2539 h 11.89"
         style="fill:#231f20;fill-opacity:1;fill-rule:nonzero;stroke:none"
         transform="matrix(0.13333333,0,0,-0.13333333,0,97.213333)" /><path
         id="path22"
         d="M 2249.11,6.55469 V 298.477 h 32.8 V 6.55469 h -32.8"
         style="fill:#231f20;fill-opacity:1;fill-rule:nonzero;stroke:none"
         transform="matrix(0.13333333,0,0,-0.13333333,0,97.213333)" /><path
         id="path23"
         d="m 2470.52,218.117 h 32.8 V 6.55469 h -31.16 V 38.125 c -16.13,-24.3242 -38.27,-36.49219 -66.43,-36.49219 -23.5,0 -41.81,6.42578 -54.94,19.27739 -13.11,12.8398 -19.68,30.8867 -19.68,54.1211 V 218.117 h 32.81 V 78.3125 c 0,-31.4375 16.12,-47.1602 48.38,-47.1602 15.3,0 28.83,5.7422 40.58,17.2266 11.76,11.4766 17.64,28.1563 17.64,50.0195 V 218.117"
         style="fill:#231f20;fill-opacity:1;fill-rule:nonzero;stroke:none"
         transform="matrix(0.13333333,0,0,-0.13333333,0,97.213333)" /><path
         id="path24"
         d="m 2645.18,189.414 h -43.47 V 52.0703 c 0,-12.0312 8.07,-18.0469 24.19,-18.0469 h 19.28 V 6.55469 c -9.03,-0.82031 -16.82,-1.23047 -23.38,-1.23047 -35.26,0 -52.89,14.62888 -52.89,43.87498 V 189.414 h -34.85 v 28.703 h 34.85 v 59.863 h 32.8 v -59.863 h 43.47 v -28.703"
         style="fill:#231f20;fill-opacity:1;fill-rule:nonzero;stroke:none"
         transform="matrix(0.13333333,0,0,-0.13333333,0,97.213333)" /><path
         id="path25"
         d="M 504.781,7.02734 H 207.234 V 225.309 H 0 v 39.812 h 248.563 l 40.949,39.606 H 0 v 39.609 h 330.465 l 40.492,39.172 H 0 v 39.613 h 411.898 l 40.954,39.609 H 0 v 39.227 H 207.234 V 719.066 H 504.781 V 501.957 H 712.035 V 225.309 H 504.781 V 7.02734"
         style="fill:#6aa7df;fill-opacity:1;fill-rule:nonzero;stroke:none"
         transform="matrix(0.13333333,0,0,-0.13333333,0,97.213333)" /></g></g></svg>
